<svg xmlns="http://www.w3.org/2000/svg"  viewBox="0 0 24 24" width="48px" height="48px" baseProfile="basic"><linearGradient id="vPePrBfCiwsOuGBb8hSfMa" x1="3.363" x2="20.637" y1="3.363" y2="20.637" gradientUnits="userSpaceOnUse"><stop offset="0" stop-color="#fff" stop-opacity=".6"/><stop offset="1" stop-color="#fff" stop-opacity=".3"/></linearGradient><path fill="url(#vPePrBfCiwsOuGBb8hSfMa)" d="M19.503,3.421C17.662,3.2,15.131,3,12,3S6.338,3.2,4.497,3.421C2.496,3.661,1,5.374,1,7.39 v9.221c0,2.015,1.496,3.728,3.497,3.969C6.338,20.8,8.869,21,12,21s5.662-0.2,7.503-0.421C21.504,20.338,23,18.626,23,16.61V7.39 C23,5.374,21.504,3.661,19.503,3.421z"/><linearGradient id="vPePrBfCiwsOuGBb8hSfMb" x1="3.363" x2="20.637" y1="3.363" y2="20.637" gradientUnits="userSpaceOnUse"><stop offset="0" stop-color="#fff" stop-opacity=".6"/><stop offset=".493" stop-color="#fff" stop-opacity="0"/><stop offset=".997" stop-color="#fff" stop-opacity=".3"/></linearGradient><path fill="url(#vPePrBfCiwsOuGBb8hSfMb)" d="M12,3.5c2.632,0,5.136,0.141,7.443,0.418 C21.186,4.127,22.5,5.62,22.5,7.39v9.221c0,1.77-1.314,3.263-3.057,3.472C17.136,20.359,14.632,20.5,12,20.5 s-5.136-0.141-7.443-0.418C2.814,19.873,1.5,18.38,1.5,16.61V7.39c0-1.77,1.314-3.263,3.057-3.472C6.864,3.641,9.368,3.5,12,3.5 M12,3C8.869,3,6.338,3.2,4.497,3.421C2.496,3.661,1,5.374,1,7.39v9.221c0,2.015,1.496,3.728,3.497,3.969 C6.338,20.8,8.869,21,12,21s5.662-0.2,7.503-0.421C21.504,20.338,23,18.626,23,16.61V7.39c0-2.015-1.496-3.728-3.497-3.969 C17.662,3.2,15.131,3,12,3L12,3z"/><linearGradient id="vPePrBfCiwsOuGBb8hSfMc" x1="8.104" x2="13.665" y1="9.219" y2="14.781" gradientUnits="userSpaceOnUse"><stop offset="0" stop-color="#fff" stop-opacity=".7"/><stop offset=".519" stop-color="#fff" stop-opacity=".45"/><stop offset="1" stop-color="#fff" stop-opacity=".55"/></linearGradient><path fill="url(#vPePrBfCiwsOuGBb8hSfMc)" d="M15.52,11.104l-4.846-3.231	c-0.331-0.22-0.757-0.242-1.105-0.054C9.219,8.007,9,8.372,9,8.769v6.462c0,0.398,0.219,0.762,0.569,0.95	c0.159,0.085,0.334,0.127,0.508,0.127c0.209,0,0.417-0.061,0.597-0.181l4.846-3.231C15.82,12.696,16,12.36,16,12	S15.82,11.304,15.52,11.104z"/></svg>